<svg width="820" height="330" viewBox="0 0 820 330" xmlns="http://www.w3.org/2000/svg" role="img" aria-labelledby="title desc">
  <title id="title">Profile bio</title>
  <desc id="desc">A dark cyberpunk-styled rendering of the profile bio.</desc>

  <style>
    /* Media queries in an SVG loaded via img match the image's own rendered
       width, so this swaps to the large-type layout when GitHub scales the
       badge down on narrow screens. */
    .mobile { display: none; }
    @media (max-width: 500px) {
      .desktop { display: none; }
      .mobile { display: inline; }
      /* keep the skyline subtle behind the larger mobile type */
      .city { opacity: 0.5; }
    }

    .beacon { animation: blink 2.6s step-end infinite; }
    @keyframes blink {
      0%, 100% { fill-opacity: 0.9; }
      48% { fill-opacity: 0.1; }
      62% { fill-opacity: 0.9; }
    }

    .glitch {
      fill: #d14fff;
      text-shadow: 1.5px 0 rgba(0, 240, 255, 0.55), -1.5px 0 rgba(255, 45, 111, 0.55);
    }
    .f1 { animation: flicker 3.7s step-end infinite; }
    .f2 { animation: flicker 4.3s step-end infinite 1.1s; }
    .f3 { animation: flicker 5.1s step-end infinite 2.3s; }
    .f4 { animation: flicker 4.7s step-end infinite 0.6s; }
    @keyframes flicker {
      0%, 100% { fill-opacity: 1; }
      7%  { fill-opacity: 0.35; }
      9%  { fill-opacity: 1; }
      11% { fill-opacity: 0.6; }
      12% { fill-opacity: 1; }
      53% { fill-opacity: 0.25; }
      55% { fill-opacity: 1; }
    }
  </style>

  <defs>
    <linearGradient id="bg" x1="0" y1="0" x2="1" y2="1">
      <stop offset="0" stop-color="#05070c"/>
      <stop offset="0.55" stop-color="#0d1117"/>
      <stop offset="1" stop-color="#130814"/>
    </linearGradient>
    <linearGradient id="signal" x1="0" y1="0" x2="1" y2="0">
      <stop offset="0" stop-color="#5175bf" stop-opacity="0"/>
      <stop offset="0.45" stop-color="#5175bf" stop-opacity="0.8"/>
      <stop offset="1" stop-color="#d14fff" stop-opacity="0"/>
    </linearGradient>
    <filter id="glow" x="-20%" y="-60%" width="140%" height="220%">
      <feGaussianBlur stdDeviation="3" result="blur"/>
      <feMerge>
        <feMergeNode in="blur"/>
        <feMergeNode in="SourceGraphic"/>
      </feMerge>
    </filter>
    <pattern id="scanlines" width="4" height="4" patternUnits="userSpaceOnUse">
      <rect width="4" height="1" fill="#ffffff" opacity="0.045"/>
    </pattern>
    <clipPath id="frame">
      <rect width="820" height="330" rx="18"/>
    </clipPath>
    <radialGradient id="cityglow">
      <stop offset="0" stop-color="#d14fff" stop-opacity="0.30"/>
      <stop offset="0.6" stop-color="#5175bf" stop-opacity="0.10"/>
      <stop offset="1" stop-color="#d14fff" stop-opacity="0"/>
    </radialGradient>
    <linearGradient id="cityfade" x1="0" y1="0" x2="0" y2="1">
      <stop offset="0" stop-color="#ffffff"/>
      <stop offset="0.5" stop-color="#ffffff"/>
      <stop offset="1" stop-color="#000000"/>
    </linearGradient>
    <mask id="citymask">
      <rect x="440" y="0" width="380" height="200" fill="url(#cityfade)"/>
    </mask>
  </defs>

  <rect width="820" height="330" rx="18" fill="url(#bg)"/>

  <g class="city" clip-path="url(#frame)">
    <ellipse cx="650" cy="160" rx="230" ry="90" fill="url(#cityglow)"/>
    <g mask="url(#citymask)">
      <path fill="#101826" opacity="0.75" d="M460 160 V122 h22 V98 h18 V126 h14 l16 -34 l16 34 h14 V72 h20 V108 h22 V86 l12 -14 l12 14 V118 h20 V54 h16 V100 h22 V78 h18 V128 h24 V92 h20 V130 h30 V112 h20 V160 Z"/>
      <path fill="#070b13" d="M508 165 V112 h5 V100 h20 V112 h5 V140 h8 V84 l14 -16 l14 16 V120 h10 V60 h8 V44 h12 V32 h12 V44 h8 V60 h6 V128 h8 V72 q14 -18 28 0 V108 h10 V64 l24 10 V134 h8 V88 h26 l8 14 V126 h12 V96 h28 V148 h16 V165 Z"/>
      <path d="M610 32 V14" stroke="#3a4454" stroke-width="1.5"/>
      <circle class="beacon" cx="610" cy="12" r="2.5" fill="#ff2d6f"/>
      <path d="M560 26 H770" stroke="url(#signal)" stroke-width="1.5" opacity="0.5"/>
      <text class="f2" x="607" y="78" text-anchor="middle" font-size="13" fill="#d14fff" opacity="0.75" filter="url(#glow)">
        <tspan x="607" dy="0">神</tspan>
        <tspan x="607" dy="15">話</tspan>
        <tspan x="607" dy="15">機</tspan>
        <tspan x="607" dy="15">械</tspan>
      </text>
      <g fill="#00f0ff" opacity="0.55">
        <rect x="514" y="120" width="4" height="3"/><rect x="524" y="132" width="4" height="3"/>
        <rect x="552" y="96" width="4" height="3"/><rect x="562" y="108" width="4" height="3"/>
        <rect x="590" y="84" width="4" height="3"/>
        <rect x="646" y="90" width="4" height="3"/>
        <rect x="682" y="84" width="4" height="3"/><rect x="692" y="96" width="4" height="3"/>
        <rect x="758" y="106" width="4" height="3"/><rect x="770" y="118" width="4" height="3"/>
      </g>
      <g fill="#d14fff" opacity="0.5">
        <rect x="620" y="92" width="4" height="3"/>
        <rect x="714" y="100" width="4" height="3"/><rect x="728" y="112" width="4" height="3"/>
        <rect x="660" y="104" width="4" height="3"/>
        <rect x="530" y="146" width="4" height="3"/>
      </g>
      <g fill="#ffd166" opacity="0.4">
        <rect x="650" y="118" width="4" height="3"/>
        <rect x="716" y="128" width="4" height="3"/>
        <rect x="762" y="132" width="4" height="3"/>
        <rect x="786" y="154" width="4" height="3"/>
      </g>
    </g>
  </g>

  <rect x="1" y="1" width="818" height="328" rx="17" fill="none" stroke="#30363d"/>
  <rect width="820" height="330" rx="18" fill="url(#scanlines)"/>

  <g opacity="0.55">
    <path d="M42 46 H778" stroke="url(#signal)" stroke-width="1"/>
    <path d="M42 306 H778" stroke="url(#signal)" stroke-width="1"/>
    <path d="M82 28 V312" stroke="#5175bf" stroke-width="1" opacity="0.18"/>
    <path d="M738 28 V312" stroke="#d14fff" stroke-width="1" opacity="0.16"/>
  </g>

  <g class="desktop" font-family="ui-monospace, SFMono-Regular, Menlo, Monaco, Consolas, 'Liberation Mono', monospace">
    <text x="52" y="36" fill="#00f0ff" font-size="11" letter-spacing="3" opacity="0.95" filter="url(#glow)">SIGNAL // MYTH // MACHINE</text>
    <text x="52" y="74" fill="#e6edf3" font-size="20" font-weight="700">
      <tspan x="52" dy="0">I work in the static between decaying signals</tspan>
      <tspan x="52" dy="31">and collapsing mythologies, where <tspan class="glitch f1">machines</tspan></tspan>
      <tspan x="52" dy="31">have learned to <tspan class="glitch f2">lie.</tspan></tspan>
    </text>

    <g fill="#c9d1d9" font-size="18">
      <text x="68" y="196">— mapping hostile systems</text>
      <text x="68" y="232">— structuring ambiguity across networks, infrastructure, and <tspan class="glitch f3">myth</tspan></text>
      <text x="68" y="268">— building tools for those who live near the <tspan class="glitch f4">edge cases</tspan></text>
    </g>
  </g>

  <g class="mobile" font-family="ui-monospace, SFMono-Regular, Menlo, Monaco, Consolas, 'Liberation Mono', monospace">
    <text x="52" y="38" fill="#00f0ff" font-size="16" letter-spacing="2" opacity="0.95" filter="url(#glow)">SIGNAL // MYTH // MACHINE</text>
    <text x="52" y="80" fill="#e6edf3" font-size="28" font-weight="700">
      <tspan x="52" dy="0">I work in the static between decaying</tspan>
      <tspan x="52" dy="34">signals and collapsing mythologies,</tspan>
      <tspan x="52" dy="34">where <tspan class="glitch f1">machines</tspan> have learned to <tspan class="glitch f2">lie.</tspan></tspan>
    </text>

    <g fill="#c9d1d9" font-size="24">
      <text x="68" y="186">— mapping hostile systems</text>
      <text x="68" y="216">— structuring ambiguity across networks,</text>
      <text x="92" y="244">infrastructure, and <tspan class="glitch f3">myth</tspan></text>
      <text x="68" y="274">— building tools for those who live near</text>
      <text x="92" y="302">the <tspan class="glitch f4">edge cases</tspan></text>
    </g>
  </g>

  <g opacity="0.55" fill="none" stroke="#5175bf">
    <path d="M720 62 l18 0 l0 18"/>
    <path d="M100 292 l-18 0 l0 -18"/>
  </g>
</svg>
